<svg xmlns="http://www.w3.org/2000/svg" width="100" height="100" fill="none" xmlns:v="https://vecta.io/nano"><use href="#B" fill="#005589"/><use href="#B" fill="url(#A)"/><path d="M5 44.5V19c0-6.627 5.373-12 12-12h39.5H83c6.627 0 12 5.373 12 12v54c0 6.627-5.373 12-12 12H17c-6.627 0-12-5.373-12-12V44.5z" fill="#1a0324"/><path d="M5 54.5c0-6.522 7.851-9.827 12.516-5.269l2.888 2.823a9.07 9.07 0 0 0 12.929-.259L35.5 49.5l1.199-1.499a11.72 11.72 0 0 1 15.779-2.344l3.045 2.088a7.53 7.53 0 0 0 9.888-1.208 7.53 7.53 0 0 1 8.563-1.933l4.546 1.923c2.134.903 4.595.529 6.364-.968C88.879 42.18 95 45.019 95 50.251V73c0 6.627-5.373 12-12 12H17c-6.627 0-12-5.373-12-12V54.5z" fill="#7409a5"/><path d="M41.158 33.328c-4.651 0-8.021 1.301-10.112 3.904-2.048 2.56-3.072 6.08-3.072 10.56 0 2.176.256 4.16.768 5.952.512 1.749 1.28 3.264 2.304 4.544s2.304 2.283 3.84 3.008c1.536.683 3.328 1.024 5.376 1.024 1.109 0 2.048-.021 2.816-.064.811-.043 1.515-.128 2.112-.256V46.576h9.984v21.952c-1.195.469-3.115.96-5.76 1.472-2.645.555-5.909.832-9.792.832-3.328 0-6.357-.512-9.088-1.536-2.688-1.024-4.992-2.517-6.912-4.48s-3.413-4.373-4.48-7.232c-1.024-2.859-1.536-6.123-1.536-9.792 0-3.712.576-6.997 1.728-9.856s2.731-5.269 4.736-7.232c2.005-2.005 4.352-3.52 7.04-4.544 2.731-1.024 5.632-1.536 8.704-1.536 2.091 0 3.968.149 5.632.448 1.707.256 3.157.576 4.352.96 1.237.341 2.24.704 3.008 1.088.811.384 1.387.683 1.728.896l-2.88 8c-1.365-.725-2.944-1.344-4.736-1.856-1.749-.555-3.669-.832-5.76-.832zM77.264 70.64c-2.773-.043-5.035-.341-6.784-.896-1.707-.555-3.072-1.323-4.096-2.304-.981-1.024-1.664-2.24-2.048-3.648-.341-1.451-.512-3.072-.512-4.864V21.872l9.536-1.536v36.672c0 .853.064 1.621.192 2.304s.363 1.259.704 1.728c.384.469.917.853 1.6 1.152s1.6.491 2.752.576l-1.344 7.872z" fill="#fff"/><defs><linearGradient id="A" x1="106.606" y1="81.711" x2="-4.5" y2="81.711" gradientUnits="userSpaceOnUse"><stop stop-color="#2b023e"/><stop offset=".139" stop-color="#7006a1"/><stop offset=".288" stop-color="#2b023e"/><stop offset=".692" stop-color="#2b023e"/><stop offset=".846" stop-color="#7006a1"/><stop offset="1" stop-color="#2b023e"/></linearGradient><path id="B" d="M5 55h90v26c0 6.627-5.373 12-12 12H17c-6.627 0-12-5.373-12-12V55z"/></defs></svg>